<svg xmlns="http://www.w3.org/2000/svg" viewBox="0 0 64 64" width="64" height="64">
  <defs>
    <linearGradient id="bg" x1="0%" y1="0%" x2="100%" y2="100%">
      <stop offset="0%" stop-color="#ffffff"/>
      <stop offset="55%" stop-color="#f5f9f7"/>
      <stop offset="100%" stop-color="#eef5f2"/>
    </linearGradient>
    <linearGradient id="env" x1="0%" y1="0%" x2="100%" y2="100%">
      <stop offset="0%" stop-color="#6db3a2"/>
      <stop offset="100%" stop-color="#5b9a8b"/>
    </linearGradient>
    <linearGradient id="flap" x1="0%" y1="0%" x2="100%" y2="100%">
      <stop offset="0%" stop-color="#7bc0af"/>
      <stop offset="100%" stop-color="#5b9a8b"/>
    </linearGradient>
    <filter id="shadow" x="-20%" y="-20%" width="140%" height="160%">
      <feDropShadow dx="0" dy="2" stdDeviation="2.5" flood-color="#4a7c9b" flood-opacity="0.22"/>
    </filter>
  </defs>

  <rect x="4" y="4" width="56" height="56" rx="14" fill="url(#bg)"/>
  <rect x="8" y="8" width="48" height="4" rx="2" fill="#5b9a8b" opacity="0.5"/>

  <g transform="translate(12 15)" filter="url(#shadow)">
    <rect x="0" y="9" width="40" height="26" rx="6" fill="url(#env)"/>
    <path d="M0 12 L20 25 L40 12 L36.5 9 L3.5 9 Z" fill="url(#flap)"/>
    <rect x="6" y="2" width="28" height="18" rx="3" fill="#ffffff" opacity="0.96"/>
    <line x1="11" y1="8" x2="29" y2="8" stroke="#5b9a8b" stroke-width="2" stroke-linecap="round" opacity="0.5"/>
    <line x1="11" y1="12.5" x2="26" y2="12.5" stroke="#5b9a8b" stroke-width="2" stroke-linecap="round" opacity="0.3"/>
    <circle cx="35.5" cy="5.5" r="5.5" fill="#4a7c9b"/>
    <text x="35.5" y="7.8" text-anchor="middle" font-family="Arial, sans-serif" font-size="6.5" font-weight="700" fill="#ffffff">M</text>
  </g>
</svg>
