<svg xmlns="http://www.w3.org/2000/svg" viewBox="0 0 800 200" width="800" height="200">
  <defs>
    <linearGradient id="bg" x1="0%" y1="0%" x2="100%" y2="100%">
      <stop offset="0%" style="stop-color:#f7fbf9"/>
      <stop offset="50%" style="stop-color:#eef5f2"/>
      <stop offset="100%" style="stop-color:#f7fbf9"/>
    </linearGradient>
    <linearGradient id="envelope" x1="0%" y1="0%" x2="100%" y2="100%">
      <stop offset="0%" style="stop-color:#5b9a8b"/>
      <stop offset="100%" style="stop-color:#4a8a7b"/>
    </linearGradient>
    <linearGradient id="flap" x1="0%" y1="0%" x2="100%" y2="100%">
      <stop offset="0%" style="stop-color:#6db3a2"/>
      <stop offset="100%" style="stop-color:#5b9a8b"/>
    </linearGradient>
    <filter id="shadow" x="-5%" y="-5%" width="110%" height="120%">
      <feDropShadow dx="0" dy="2" stdDeviation="4" flood-color="#5b9a8b" flood-opacity="0.18"/>
    </filter>
    <filter id="iconShadow" x="-10%" y="-10%" width="120%" height="130%">
      <feDropShadow dx="0" dy="3" stdDeviation="5" flood-color="#4a7c9b" flood-opacity="0.25"/>
    </filter>
  </defs>

  <!-- Background -->
  <rect width="800" height="200" rx="16" fill="url(#bg)"/>

  <!-- Decorative top stripe -->
  <rect x="0" y="0" width="800" height="4" rx="2" fill="#5b9a8b" opacity="0.5"/>

  <!-- Envelope icon group -->
  <g transform="translate(220, 58)" filter="url(#iconShadow)">
    <!-- Envelope body -->
    <rect x="0" y="20" width="80" height="55" rx="6" fill="url(#envelope)"/>
    <!-- Envelope flap -->
    <path d="M0,26 L40,55 L80,26 L74,20 L6,20 Z" fill="url(#flap)"/>
    <!-- Letter peeking out -->
    <rect x="12" y="8" width="56" height="40" rx="3" fill="white" opacity="0.92"/>
    <!-- Letter lines -->
    <line x1="22" y1="20" x2="58" y2="20" stroke="#5b9a8b" stroke-width="2.5" stroke-linecap="round" opacity="0.5"/>
    <line x1="22" y1="28" x2="50" y2="28" stroke="#5b9a8b" stroke-width="2.5" stroke-linecap="round" opacity="0.35"/>
    <line x1="22" y1="36" x2="42" y2="36" stroke="#5b9a8b" stroke-width="2.5" stroke-linecap="round" opacity="0.2"/>
    <!-- Small decorative dot -->
    <circle cx="72" cy="12" r="8" fill="#4a7c9b" opacity="0.8"/>
    <text x="72" y="16" text-anchor="middle" font-family="Arial, sans-serif" font-size="10" font-weight="bold" fill="white">M</text>
  </g>

  <!-- ManyMail text -->
  <text x="325" y="112" font-family="'Georgia', 'Times New Roman', serif" font-size="56" font-weight="bold" fill="#2a5f8a" letter-spacing="2">
    ManyMail
  </text>

  <!-- Tagline -->
  <text x="400" y="148" text-anchor="middle" font-family="'Segoe UI', 'Helvetica Neue', Arial, sans-serif" font-size="15" fill="#5b9a8b" letter-spacing="3" font-weight="500">
    SELF-HOSTED MAIL SERVICE
  </text>

  <!-- Decorative bottom stripe -->
  <g opacity="0.45">
    <rect x="280" y="168" width="240" height="3" rx="1.5" fill="#5b9a8b"/>
    <circle cx="275" cy="169.5" r="3" fill="#5b9a8b"/>
    <circle cx="525" cy="169.5" r="3" fill="#5b9a8b"/>
  </g>
</svg>
